<svg id="Component_13_2" data-name="Component 13 – 2" xmlns="http://www.w3.org/2000/svg" xmlns:xlink="http://www.w3.org/1999/xlink" width="16.877" height="22.729" viewBox="0 0 16.877 22.729">
  <defs>
    <clipPath id="clip-path">
      <rect id="Rectangle_9" data-name="Rectangle 9" width="16.877" height="22.729"/>
    </clipPath>
  </defs>
  <g id="Group_12" data-name="Group 12" clip-path="url(#clip-path)">
    <path id="Path_24" data-name="Path 24" d="M1.644,22.729a.523.523,0,0,1-.309-.448.447.447,0,0,1,.485-.439c.747,0,1.495,0,2.242,0h3.5c-.043-.073-.071-.128-.106-.177-1.953-2.767-3.9-5.542-5.864-8.3A8.416,8.416,0,0,1,2.746,2.217,8.135,8.135,0,0,1,9.123.033a8.4,8.4,0,0,1,7.649,7.107,8.253,8.253,0,0,1-1.452,6.167c-.454.648-.913,1.293-1.37,1.939a.447.447,0,0,1-.491.22.389.389,0,0,1-.334-.366.689.689,0,0,1,.121-.386c.422-.616.854-1.226,1.289-1.833a7.545,7.545,0,1,0-12.187.012q2.965,4.181,5.914,8.373c.051.072.1.143.173.24.061-.081.113-.147.162-.216q1.12-1.586,2.238-3.173a.477.477,0,0,1,.479-.254.445.445,0,0,1,.267.736c-.422.607-.852,1.209-1.279,1.813L9.3,21.841h5.737a.458.458,0,0,1,.492.329.45.45,0,0,1-.246.516.457.457,0,0,0-.049.042Z" transform="translate(0 0)"/>
    <path id="Path_25" data-name="Path 25" d="M78.875,74.758a4,4,0,1,1-4,3.993,4,4,0,0,1,4-3.993m0,.888a3.108,3.108,0,1,0,3.105,3.105,3.113,3.113,0,0,0-3.105-3.105" transform="translate(-70.434 -70.323)"/>
    <path id="Path_26" data-name="Path 26" d="M202.591,274.778a.442.442,0,1,1,.443-.431.447.447,0,0,1-.443.431" transform="translate(-190.158 -257.645)"/>
  </g>
</svg>
