<svg id="Component_9_2" data-name="Component 9 – 2" xmlns="http://www.w3.org/2000/svg" xmlns:xlink="http://www.w3.org/1999/xlink" width="18.457" height="22.729" viewBox="0 0 18.457 22.729">
  <defs>
    <clipPath id="clip-path">
      <rect id="Rectangle_43" data-name="Rectangle 43" width="18.457" height="22.729" stroke="#ededed" stroke-width="0.4"/>
    </clipPath>
  </defs>
  <g id="Group_49" data-name="Group 49" clip-path="url(#clip-path)">
    <path id="Path_45" data-name="Path 45" d="M11.854,0A5.437,5.437,0,0,1,12.82.41,2.031,2.031,0,0,1,13.7,2.2c0,.177,0,.353,0,.564h.249c.784,0,1.568-.006,2.352,0a2.03,2.03,0,0,1,.895,3.9.336.336,0,0,0-.253.381q.01,6.344.005,12.689a3.083,3.083,0,0,1-.516,1.825,2.578,2.578,0,0,1-2.179,1.161c-.776.011-1.553,0-2.33,0-2.529,0-5.059-.019-7.588.007a2.75,2.75,0,0,1-2.82-2.77c-.026-1.323-.007-2.647-.007-3.971q0-4.5,0-9.006a.261.261,0,0,0-.208-.3A2.026,2.026,0,0,1,.016,4.561,2,2,0,0,1,1.837,2.8c.685-.042,1.374-.025,2.061-.032.273,0,.547,0,.839,0,.016-.308.019-.608.05-.905A2.057,2.057,0,0,1,6.514.036.664.664,0,0,0,6.617,0ZM2.577,6.825v.234q0,6.345,0,12.691a3.047,3.047,0,0,0,.037.486,1.621,1.621,0,0,0,1.6,1.42q5.015.012,10.03,0a1.529,1.529,0,0,0,1.3-.684,2.059,2.059,0,0,0,.343-1.238q0-6.334,0-12.669c0-.078-.007-.156-.011-.24ZM9.224,5.748H16.19a3.27,3.27,0,0,0,.354-.016.95.95,0,0,0,.142-1.857,1.823,1.823,0,0,0-.44-.043q-7.01,0-14.02,0a2.273,2.273,0,0,0-.353.025A.949.949,0,0,0,1.8,5.712a2,2,0,0,0,.441.034q3.494,0,6.988,0m-3.413-3H12.62a7.858,7.858,0,0,0,0-.788.97.97,0,0,0-.952-.885q-2.43-.018-4.86,0a.964.964,0,0,0-.949.813,7.181,7.181,0,0,0-.044.861" transform="translate(0 -0.001)" stroke="#ededed" stroke-width="0.4"/>
    <path id="Path_46" data-name="Path 46" d="M105.279,160.2c0,1.634,0,3.267,0,4.9a.978.978,0,0,1-.1.441.449.449,0,0,1-.494.219.482.482,0,0,1-.424-.369,1.134,1.134,0,0,1-.036-.284q0-4.889,0-9.779c0-.391.158-.616.453-.656a.51.51,0,0,1,.6.428,1.512,1.512,0,0,1,.014.265q0,2.417,0,4.834" transform="translate(-98.659 -146.42)" stroke="#ededed" stroke-width="0.4"/>
    <path id="Path_47" data-name="Path 47" d="M163.18,160.121q0-2.45,0-4.9a.588.588,0,0,1,.286-.581.52.52,0,0,1,.738.3,1.277,1.277,0,0,1,.041.35q0,4.845,0,9.69a1.375,1.375,0,0,1-.031.307.516.516,0,0,1-1.008,0,1.387,1.387,0,0,1-.025-.308q0-2.428,0-4.856" transform="translate(-154.48 -146.339)" stroke="#ededed" stroke-width="0.4"/>
    <path id="Path_48" data-name="Path 48" d="M222.123,160.151q0-2.428,0-4.856c0-.46.178-.7.519-.707s.546.247.546.708q0,4.845,0,9.69c0,.46-.2.719-.547.709s-.518-.25-.518-.711q0-2.417,0-4.834" transform="translate(-210.281 -146.347)" stroke="#ededed" stroke-width="0.4"/>
  </g>
</svg>
