<svg xmlns="http://www.w3.org/2000/svg" width="12.533" height="12.54" viewBox="0 0 12.533 12.54">
  <g id="Component_22_1" data-name="Component 22 – 1" transform="translate(0.048 0.116)">
    <g id="Group_90" data-name="Group 90">
      <path id="Path_62" data-name="Path 62" d="M117.936,3.352a1.6,1.6,0,0,1-.1.345,2.259,2.259,0,0,1-.343.508q-2.713,2.729-5.441,5.443a.591.591,0,0,1-.246.143c-.831.237-1.664.467-2.5.7-.319.088-.515-.106-.427-.423.229-.833.459-1.667.7-2.5a.591.591,0,0,1,.142-.246q2.721-2.73,5.449-5.452a1.388,1.388,0,0,1,2.027,0c.1.1.206.206.309.309a1.387,1.387,0,0,1,.414.792.168.168,0,0,0,.02.043Zm-6.142,5.636,4.493-4.493-1.413-1.413-4.493,4.493,1.413,1.413M115.3,2.579l1.447,1.447a4.444,4.444,0,0,0,.391-.36.738.738,0,0,0,0-.948,4.065,4.065,0,0,0-.506-.5.671.671,0,0,0-.793-.077,4.158,4.158,0,0,0-.544.44M111.19,9.323l-1.145-1.141-.436,1.58,1.582-.439" transform="translate(-105.502 -1.429)" fill="#1c1b19" stroke="#1c1b1a" stroke-width="0.1"/>
      <path id="Path_63" data-name="Path 63" d="M6.653,51.423q-2.143,0-4.286,0A1.527,1.527,0,0,1,.848,50.379a1.676,1.676,0,0,1-.086-.523q-.008-4.013,0-8.026a1.535,1.535,0,0,1,1.569-1.568c.894-.009,1.789,0,2.683,0a.318.318,0,0,1,.354.315.322.322,0,0,1-.356.3c-.882,0-1.765,0-2.647,0a.922.922,0,0,0-.952.708,1.227,1.227,0,0,0-.032.312q0,3.946,0,7.892a.927.927,0,0,0,.7.981,1.181,1.181,0,0,0,.3.035q4.274,0,8.548,0a.942.942,0,0,0,1-1.006q0-1.317,0-2.635a.317.317,0,0,1,.248-.34.306.306,0,0,1,.365.306c0,.271,0,.542,0,.814,0,.672.008,1.344-.006,2.015a1.512,1.512,0,0,1-1.451,1.454c-.906.018-1.813.007-2.72.008H6.653" transform="translate(-0.758 -39.051)" fill="#1c1b19" stroke="#1c1b1a" stroke-width="0.1"/>
    </g>
  </g>
</svg>
