<svg id="Component_10_2" data-name="Component 10 – 2" xmlns="http://www.w3.org/2000/svg" xmlns:xlink="http://www.w3.org/1999/xlink" width="21.996" height="23.5" viewBox="0 0 21.996 23.5">
  <defs>
    <clipPath id="clip-path">
      <rect id="Rectangle_45" data-name="Rectangle 45" width="21.996" height="23.5" fill="none" stroke="#ededed" stroke-width="0.2"/>
    </clipPath>
  </defs>
  <g id="Group_55" data-name="Group 55" clip-path="url(#clip-path)">
    <path id="Path_51" data-name="Path 51" d="M13.846,23.5H13.57a1.593,1.593,0,0,0-.175-.045l-5.751-.844c-2.137-.314-4.272-.634-6.41-.942A1.239,1.239,0,0,1,0,20.26Q0,11.746,0,3.231c0-.084,0-.168,0-.252a1.155,1.155,0,0,1,.964-1.1c.6-.106,1.2-.185,1.794-.273l5.8-.851Q11.092.38,13.627.007a.4.4,0,0,1,.5.418c0,.1,0,.2,0,.3,0,.4,0,.806,0,1.235h.3q3.093,0,6.187,0A1.989,1.989,0,0,1,21.1,2a1.186,1.186,0,0,1,.892,1.278c0,5.623-.007,11.246.009,16.868a1.286,1.286,0,0,1-1.4,1.4c-2.054-.029-4.109-.009-6.164-.009h-.3c0,.506-.008.972,0,1.438a.509.509,0,0,1-.288.524M13.332.847c-.515.073-1.008.142-1.5.214L1.353,2.6c-.5.073-.569.155-.569.644q0,8.5,0,17.007c0,.046,0,.092,0,.138a.427.427,0,0,0,.418.48q2.227.329,4.456.652l5.8.852c.62.091,1.241.18,1.877.272Zm.815,6.2V8.617h.285c1.449,0,2.9,0,4.347,0a.786.786,0,0,1,.854.84c.005.191,0,.382,0,.574a.82.82,0,0,1-.928.933H14.146V12.53h.264q2.173,0,4.347,0a.8.8,0,0,1,.877.868c0,.176,0,.352,0,.528,0,.664-.288.951-.952.952H14.148v1.567h2.728c.629,0,1.257-.005,1.886,0a.8.8,0,0,1,.871.876c0,.168,0,.337,0,.5,0,.685-.291.973-.982.973H14.145v1.952h6.492c.45,0,.567-.119.567-.574q0-8.434,0-16.867c0-.453-.117-.57-.571-.57H14.144V4.694h1.73c.958,0,1.917,0,2.875,0a.8.8,0,0,1,.885.885c0,.161,0,.321,0,.482,0,.7-.285.987-.991.987h-4.5M18.838,5.5H16.9v.751h1.942ZM16.894,18h1.942v-.754H16.894ZM14.141,6.236h1.946V5.5H14.141Zm1.952,11.011H14.144V18h1.949Zm-1.95-7.082h1.943V9.416H14.143ZM18.83,9.42H16.9v.753H18.83Zm-2.75,3.9H14.147v.762H16.08Zm.819.753h1.937v-.753H16.9Z" transform="translate(0 0)" stroke="#ededed" stroke-width="0.2"/>
    <path id="Path_52" data-name="Path 52" d="M70.87,140.481l-1.579-1.915c-.263-.319-.531-.633-.785-.959a.385.385,0,0,1,.048-.555.4.4,0,0,1,.556.064c.032.033.059.07.088.106l2.046,2.479c.039.047.079.092.139.161.06-.068.113-.127.164-.189.789-.956,1.574-1.916,2.372-2.865a.656.656,0,0,1,.4-.217.357.357,0,0,1,.33.514,1.255,1.255,0,0,1-.181.263c-.808.981-1.614,1.962-2.429,2.937a.231.231,0,0,0,0,.363c.815.974,1.621,1.956,2.43,2.936a1.857,1.857,0,0,1,.152.2.363.363,0,0,1-.073.5.372.372,0,0,1-.5,0,1.2,1.2,0,0,1-.157-.166l-2.368-2.869c-.038-.046-.08-.09-.139-.156l-.281.339q-.95,1.151-1.9,2.3a1.074,1.074,0,0,1-.177.178.35.35,0,0,1-.465-.008.36.36,0,0,1-.1-.474,1.355,1.355,0,0,1,.174-.241q1.065-1.294,2.133-2.586c.033-.04.064-.083.1-.136" transform="translate(-64.477 -128.737)" stroke="#ededed" stroke-width="0.2"/>
  </g>
</svg>
