<svg xmlns="http://www.w3.org/2000/svg" width="23.609" height="22.522" viewBox="0 0 23.609 22.522">
  <g id="Component_8_2" data-name="Component 8 – 2" transform="translate(0.15 0.15)">
    <g id="Group_54" data-name="Group 54">
      <path id="Path_49" data-name="Path 49" d="M0,108.092a.66.66,0,0,1,.674-.37q6.706.007,13.413,0h.327c-.094-.1-.149-.163-.207-.221-.953-.954-1.909-1.9-2.856-2.864a.889.889,0,0,1-.225-.4.434.434,0,0,1,.252-.489.465.465,0,0,1,.533.041,1.959,1.959,0,0,1,.207.193l3.851,3.843a.521.521,0,0,1,0,.807l-3.717,3.71-.151.15c-.321.32-.6.364-.839.132s-.191-.531.118-.84q1.4-1.405,2.811-2.809c.061-.061.131-.113.2-.17l-.018-.069H14.11q-6.706,0-13.413,0a.677.677,0,0,1-.7-.37Z" transform="translate(0 -97.132)" stroke="#ededed" stroke-width="0.3"/>
      <path id="Path_50" data-name="Path 50" d="M47.331,11.1A11.108,11.108,0,0,1,25.785,14.9a.794.794,0,0,1-.046-.366.473.473,0,0,1,.444-.393.487.487,0,0,1,.507.313c.151.346.272.707.443,1.043a9.817,9.817,0,0,0,7.685,5.59A10.087,10.087,0,1,0,26.869,7.3c-.048.116-.089.236-.134.353-.138.355-.4.5-.692.384a.515.515,0,0,1-.258-.729,10.75,10.75,0,0,1,2.79-4.249A10.917,10.917,0,0,1,37.189.039a11.081,11.081,0,0,1,9.858,8.627c.176.8.234,1.618.347,2.428l-.063.009" transform="translate(-24.104 0)" stroke="#ededed" stroke-width="0.3"/>
    </g>
  </g>
</svg>
