<svg id="Component_1_2" data-name="Component 1 – 2" xmlns="http://www.w3.org/2000/svg" xmlns:xlink="http://www.w3.org/1999/xlink" width="30.191" height="31.941" viewBox="0 0 30.191 31.941">
  <defs>
    <clipPath id="clip-path">
      <rect id="Rectangle_5" data-name="Rectangle 5" width="30.191" height="31.941" fill="#fff"/>
    </clipPath>
  </defs>
  <g id="Group_4" data-name="Group 4" clip-path="url(#clip-path)">
    <path id="Path_7" data-name="Path 7" d="M6.792,2.746V6.188h5.1c.129,0,.289-.038.379.023.157.108.365.272.377.427s-.164.355-.307.478c-.087.075-.268.053-.407.054q-2.7,0-5.41,0c-.606,0-.736-.133-.737-.745,0-.629,0-1.258,0-1.905H1V30.963c.132.007.256.018.38.018q10.257,0,20.515,0a2.022,2.022,0,0,0,2.184-2.193q0-5.514,0-11.029a1.659,1.659,0,0,1,.018-.384.484.484,0,0,1,.954.042,1.39,1.39,0,0,1,.006.21q0,5.637,0,11.274a2.966,2.966,0,0,1-2.387,2.976,3.891,3.891,0,0,1-.8.061q-10.556,0-21.112,0c-.641,0-.751-.111-.751-.762q0-13.452,0-26.9c0-.639.113-.747.764-.747H5.791c0-.4,0-.773,0-1.143,0-.458.155-.612.608-.616.585,0,1.171-.011,1.756,0a.547.547,0,0,0,.517-.262,3.618,3.618,0,0,1,6.091.33.909.909,0,0,1,.071.615.482.482,0,0,1-.408.236.706.706,0,0,1-.457-.3,2.732,2.732,0,0,0-1.591-1.3A2.61,2.61,0,0,0,9.327,2.294a.8.8,0,0,1-.821.457c-.56-.02-1.121-.005-1.714-.005" transform="translate(0 -0.001)" fill="#fff"/>
    <path id="Path_8" data-name="Path 8" d="M159.748,14.462c0-1.159.021-2.318-.01-3.476a.838.838,0,0,1,.569-.906c2.2-1.027,4.393-2.084,6.579-3.147a.949.949,0,0,1,.922-.006q3.343,1.624,6.7,3.215a.671.671,0,0,1,.43.709q-.028,3.581-.006,7.163a.834.834,0,0,1-.54.869c-2.26,1.07-4.509,2.164-6.771,3.233a.779.779,0,0,1-.59.01c-2.269-1.079-4.526-2.184-6.794-3.266a.749.749,0,0,1-.5-.781c.021-1.205.008-2.411.008-3.617m8.08,6.443a1.247,1.247,0,0,0,.176-.049c1.9-.921,3.808-1.846,5.716-2.759a.35.35,0,0,0,.217-.382c0-1.978,0-3.957,0-5.935,0-.086-.012-.172-.022-.289-.133.058-.229.1-.322.14-1.683.808-3.351,1.648-5.055,2.408a1.047,1.047,0,0,0-.724,1.168c.046,1.883.017,3.767.017,5.7m-1.047-.013a2.625,2.625,0,0,0,.03-.267c0-1.989,0-3.977.006-5.966a.38.38,0,0,0-.266-.39Q163.773,12.942,161,11.6c-.079-.038-.165-.063-.268-.1-.008.089-.018.146-.018.2,0,2.012,0,4.024-.007,6.036a.379.379,0,0,0,.273.388q2.75,1.315,5.5,2.638c.091.044.187.079.3.128m2.976-11.919c-.8-.385-1.553-.753-2.313-1.1a.442.442,0,0,0-.32.032c-.467.213-.927.443-1.39.665l-4.371,2.1c.807.389,1.569.763,2.34,1.118a.464.464,0,0,0,.323-.06c.876-.413,1.749-.834,2.623-1.253l3.108-1.495m-4.824,3.387c.15.08.247.137.348.185.556.269,1.122.519,1.664.813a.76.76,0,0,0,.778-.01c1.508-.737,3.024-1.457,4.537-2.184.323-.156.644-.317,1.008-.5-.781-.379-1.511-.742-2.251-1.08a.535.535,0,0,0-.386.048c-.93.436-1.855.884-2.781,1.328l-2.918,1.4" transform="translate(-144.748 -6.172)" fill="#fff"/>
    <path id="Path_9" data-name="Path 9" d="M113,229.131c-1.639,0-3.278.008-4.917-.011a.823.823,0,0,1-.559-.253.437.437,0,0,1,.287-.681,1.594,1.594,0,0,1,.383-.031q4.829,0,9.659,0c.059,0,.117,0,.176,0,.376.018.6.211.582.512s-.22.461-.588.462q-2.511.005-5.022,0" transform="translate(-97.359 -206.744)" fill="#fff"/>
    <path id="Path_10" data-name="Path 10" d="M113.675,276.3H108.9a2.643,2.643,0,0,1-.35-.011.436.436,0,0,1-.413-.444.444.444,0,0,1,.39-.5,1.547,1.547,0,0,1,.314-.02h9.726c.059,0,.117,0,.175,0,.346.023.56.224.546.512a.491.491,0,0,1-.556.46c-1.685,0-3.371,0-5.056,0" transform="translate(-97.988 -249.484)" fill="#fff"/>
    <path id="Path_11" data-name="Path 11" d="M111.989,182.041c-1.1,0-2.2,0-3.3,0-.375,0-.568-.166-.577-.466s.187-.493.546-.5c.679-.008,1.358,0,2.036,0,1.5,0,3,0,4.494.006a.73.73,0,0,1,.482.135.561.561,0,0,1,.121.491.616.616,0,0,1-.433.319c-.535.04-1.076.017-1.614.017h-1.755" transform="translate(-97.967 -164.081)" fill="#fff"/>
    <path id="Path_12" data-name="Path 12" d="M43.965,148.913c.766-.933,1.49-1.82,2.22-2.7.087-.105.2-.26.307-.263a.846.846,0,0,1,.554.155c.194.178.134.428-.031.632q-.683.845-1.368,1.689c-.4.5-.806,1-1.213,1.5-.331.4-.668.393-.964-.029q-.5-.718-1-1.441a.488.488,0,1,1,.787-.559c.227.323.448.649.7,1.019" transform="translate(-38.368 -132.253)" fill="#fff"/>
    <path id="Path_13" data-name="Path 13" d="M43.994,200.407l2.123-2.592a2.88,2.88,0,0,1,.2-.24.463.463,0,0,1,.662-.061.457.457,0,0,1,.093.683c-.233.321-.495.621-.746.929q-.931,1.141-1.863,2.279c-.348.424-.668.413-.981-.034q-.492-.7-.976-1.412c-.2-.3-.179-.565.06-.74s.527-.1.742.2.436.63.682.987" transform="translate(-38.397 -178.877)" fill="#fff"/>
    <path id="Path_14" data-name="Path 14" d="M43.988,252.249l2.067-2.522c.067-.081.131-.165.2-.244a.507.507,0,0,1,.734-.141c.236.186.243.477.01.772-.2.248-.4.489-.6.734q-.977,1.2-1.954,2.391c-.359.437-.653.428-.975-.032s-.655-.94-.978-1.413a.488.488,0,0,1,.081-.738c.245-.169.51-.1.717.193.228.322.451.647.7,1" transform="translate(-38.389 -225.849)" fill="#fff"/>
    <path id="Path_15" data-name="Path 15" d="M185.363,85.168c.187.072.3.107.4.157q.948.449,1.892.9c.356.173.481.447.342.723s-.409.327-.755.164q-1-.471-1.985-.954a.433.433,0,0,1-.27-.571,1.713,1.713,0,0,1,.374-.423" transform="translate(-167.598 -77.176)" fill="#fff"/>
  </g>
</svg>
