<svg id="Component_15_2" data-name="Component 15 – 2" xmlns="http://www.w3.org/2000/svg" xmlns:xlink="http://www.w3.org/1999/xlink" width="23.076" height="26.25" viewBox="0 0 23.076 26.25">
  <defs>
    <clipPath id="clip-path">
      <rect id="Rectangle_6" data-name="Rectangle 6" width="23.076" height="26.25" fill="none" stroke="#ededed" stroke-width="0.8"/>
    </clipPath>
  </defs>
  <g id="Group_6" data-name="Group 6" clip-path="url(#clip-path)">
    <path id="Path_16" data-name="Path 16" d="M11.129,26.249a8.737,8.737,0,0,1-1.238-.384,3.733,3.733,0,0,1-2.065-2.474c-.018-.065-.037-.129-.063-.219h-.3q-3.306,0-6.612,0a.774.774,0,0,1-.781-.47.755.755,0,0,1,.183-.871L.286,21.8a11.739,11.739,0,0,0,3.06-5.951,18.127,18.127,0,0,0,.238-2.493c.048-1.04-.037-2.09.067-3.123a7.688,7.688,0,0,1,3.9-6.068,11.444,11.444,0,0,1,1.487-.675c.136-.057.195-.112.2-.268A8.713,8.713,0,0,1,9.284,1.89,2.281,2.281,0,0,1,11.718.005a2.313,2.313,0,0,1,2.124,2.213c.01.324.016.65,0,.974-.009.18.06.241.22.3a7.808,7.808,0,0,1,5.179,5.63,9.414,9.414,0,0,1,.236,1.976c.047,1.109-.007,2.223.062,3.329A11.55,11.55,0,0,0,21.8,20.59c.305.42.653.811,1,1.2a.79.79,0,0,1-.618,1.384q-3.281-.008-6.561,0h-.287c-.089.256-.155.512-.264.749A3.786,3.786,0,0,1,12.093,26.2a1.039,1.039,0,0,0-.144.045Zm9.465-4.627c0-.029,0-.048,0-.06-.057-.085-.116-.168-.175-.253A13.219,13.219,0,0,1,18,14.472c-.065-1.073-.028-2.151-.054-3.227a10.226,10.226,0,0,0-.1-1.351A6.405,6.405,0,0,0,5.13,11.129c0,.854.012,1.709,0,2.563a13.522,13.522,0,0,1-2.515,7.691c-.051.072-.1.146-.163.239Zm-6.912,1.566H9.4a2.268,2.268,0,0,0,4.284,0M12.3,3.091c0-.292.017-.581,0-.867a.764.764,0,0,0-.685-.683.721.721,0,0,0-.793.54,7.167,7.167,0,0,0-.063,1.011Z" transform="translate(0 0.001)" stroke="#ededed" stroke-width="0.8"/>
    <path id="Path_17" data-name="Path 17" d="M.039,46.7a11.455,11.455,0,0,1,3.34-7.811.779.779,0,0,1,1.1-.059.769.769,0,0,1,0,1.122,10.255,10.255,0,0,0-1.993,2.864A10.011,10.011,0,0,0,1.575,46.9a1.2,1.2,0,0,1-.043.327.758.758,0,0,1-.8.54.779.779,0,0,1-.689-.713c-.009-.119,0-.239,0-.358" transform="translate(-0.033 -35.982)" stroke="#ededed" stroke-width="0.8"/>
    <path id="Path_18" data-name="Path 18" d="M273.123,46.693c0,.094,0,.188,0,.282a.775.775,0,0,1-.749.787.8.8,0,0,1-.793-.772,20.341,20.341,0,0,0-.3-2.38,9.551,9.551,0,0,0-2.523-4.583,1.248,1.248,0,0,1-.295-.466.725.725,0,0,1,.363-.849.775.775,0,0,1,.939.151,11.492,11.492,0,0,1,3.354,7.831" transform="translate(-250.049 -35.97)" stroke="#ededed" stroke-width="0.8"/>
  </g>
</svg>
