<svg xmlns="http://www.w3.org/2000/svg" width="21.292" height="22.577" viewBox="0 0 21.292 22.577">
  <g id="Component_5_2" data-name="Component 5 – 2" transform="translate(0.352 0.37)">
    <g id="Group_44" data-name="Group 44">
      <path id="Path_30" data-name="Path 30" d="M5.923,3.723,7.251,4.1c.119.033.239.064.357.1a.741.741,0,0,1,.541.893.728.728,0,0,1-.943.515c-.991-.271-1.979-.55-2.969-.825-.1-.029-.21-.052-.311-.089a.727.727,0,0,1-.466-.856q.45-1.655.921-3.3a.734.734,0,0,1,1.411.4c-.1.4-.219.789-.328,1.184-.014.05-.022.1-.04.19.091-.039.151-.061.209-.09A10.34,10.34,0,1,1,.065,13.6,2.912,2.912,0,0,1,0,13.239a.728.728,0,0,1,.627-.811.759.759,0,0,1,.819.594,14.37,14.37,0,0,0,.659,2.117A8.54,8.54,0,0,0,8.8,20.25,8.865,8.865,0,1,0,6.166,3.59c-.068.034-.133.073-.242.133" transform="translate(0 0)" stroke="#ededed" stroke-width="0.7"/>
    </g>
  </g>
</svg>
